<svg width="440" height="153" viewBox="0 0 440 153" fill="none" xmlns="http://www.w3.org/2000/svg">
<path fill-rule="evenodd" clip-rule="evenodd" d="M146.015 34.0245C146.069 34.225 146.097 34.4317 146.097 34.6394V66.9224C146.097 67.3368 145.988 67.7438 145.78 68.1023C145.573 68.4609 145.274 68.7582 144.915 68.9644L117.819 84.5645V115.485C117.819 116.327 117.372 117.103 116.642 117.527L60.0819 150.087C59.9525 150.16 59.8112 150.207 59.67 150.257C59.617 150.275 59.567 150.307 59.5111 150.322C59.1157 150.426 58.7001 150.426 58.3048 150.322C58.24 150.304 58.1812 150.269 58.1194 150.246C57.9899 150.199 57.8546 150.157 57.731 150.087L1.18281 117.527C0.823574 117.321 0.525086 117.023 0.31743 116.665C0.109773 116.306 0.000284637 115.899 0 115.485L0 18.6362C0 18.4244 0.0294231 18.2184 0.0823846 18.0183C0.100038 17.9506 0.141231 17.8889 0.164769 17.8212C0.208904 17.6976 0.250096 17.5711 0.314827 17.4563C0.358962 17.3798 0.423692 17.318 0.476654 17.2474C0.544327 17.1533 0.606115 17.0562 0.685558 16.9738C0.753231 16.9061 0.8415 16.8561 0.918 16.7973C1.00333 16.7266 1.07983 16.6501 1.17692 16.5942L29.4554 0.314448C29.8135 0.108429 30.2193 0 30.6324 0C31.0454 0 31.4513 0.108429 31.8093 0.314448L60.0849 16.5942H60.0908C60.1849 16.6531 60.2644 16.7266 60.3497 16.7943C60.4262 16.8532 60.5115 16.9061 60.5792 16.9709C60.6616 17.0562 60.7204 17.1533 60.791 17.2474C60.841 17.318 60.9087 17.3798 60.9499 17.4563C61.0176 17.574 61.0558 17.6976 61.1029 17.8212C61.1264 17.8889 61.1676 17.9506 61.1853 18.0213C61.2395 18.2218 61.2672 18.4285 61.2677 18.6362V79.1271L84.8297 65.5601V34.6365C84.8297 34.4305 84.8591 34.2216 84.9121 34.0245C84.9327 33.9539 84.9709 33.8921 84.9944 33.8244C85.0415 33.7008 85.0827 33.5743 85.1474 33.4595C85.1916 33.383 85.2563 33.3213 85.3063 33.2506C85.377 33.1565 85.4358 33.0594 85.5182 32.977C85.5859 32.9093 85.6712 32.8593 85.7477 32.8005C85.8359 32.7299 85.9125 32.6534 86.0066 32.5975L114.288 16.3177C114.646 16.1114 115.052 16.0028 115.465 16.0028C115.878 16.0028 116.284 16.1114 116.642 16.3177L144.917 32.5975C145.018 32.6563 145.094 32.7299 145.182 32.7975C145.256 32.8564 145.341 32.9093 145.409 32.9741C145.491 33.0594 145.55 33.1565 145.621 33.2506C145.674 33.3213 145.738 33.383 145.78 33.4595C145.847 33.5743 145.886 33.7008 145.933 33.8244C145.959 33.8921 145.997 33.9539 146.015 34.0245ZM141.384 65.5601V38.7145L131.489 44.4108L117.819 52.2815V79.1271L141.387 65.5601H141.384ZM113.108 114.123V87.2596L99.6619 94.9391L61.2647 116.853V143.97L113.108 114.123ZM4.71358 22.7113V114.123L56.5512 143.967V116.856L29.4702 101.53L29.4613 101.524L29.4496 101.518C29.3583 101.465 29.2818 101.389 29.1965 101.324C29.123 101.265 29.0376 101.218 28.9729 101.153L28.967 101.144C28.8905 101.071 28.8376 100.98 28.7728 100.897C28.714 100.818 28.6434 100.75 28.5963 100.668L28.5933 100.659C28.5404 100.571 28.508 100.465 28.4698 100.365C28.4315 100.276 28.3815 100.194 28.358 100.1C28.3285 99.9881 28.3227 99.8674 28.3109 99.7527C28.2991 99.6644 28.2756 99.5761 28.2756 99.4879V99.482V36.2783L14.6086 28.4047L4.71358 22.7113ZM30.6353 5.0751L7.07625 18.6362L30.6294 32.1973L54.1855 18.6333L30.6294 5.0751H30.6353ZM42.8871 89.7076L56.5541 81.8399V22.7113L46.6591 28.4076L32.9892 36.2783V95.4069L42.8871 89.7076ZM115.465 21.0783L91.9089 34.6394L115.465 48.2005L139.018 34.6365L115.465 21.0783ZM113.108 52.2815L99.4382 44.4108L89.5433 38.7145V65.5601L103.21 73.4279L113.108 79.1271V52.2815ZM58.905 112.778L93.4565 93.053L110.728 83.1963L87.1894 69.6441L60.0878 85.2471L35.3871 99.4673L58.905 112.778Z" fill="#FF2D20"/>
<path fill-rule="evenodd" clip-rule="evenodd" d="M202.369 51.9922V102.058H220.483V110.695H192.724V51.9922H202.369ZM254.529 76.8989V71.6156H263.67V110.697H254.531V105.412C253.299 107.369 251.555 108.907 249.289 110.024C247.025 111.143 244.746 111.701 242.455 111.701C239.489 111.701 236.778 111.158 234.319 110.067C231.922 109.022 229.766 107.494 227.986 105.579C226.223 103.674 224.83 101.456 223.88 99.0402C222.891 96.5297 222.391 93.8528 222.41 91.1543C222.41 88.417 222.898 85.8015 223.878 83.3119C224.822 80.8792 226.216 78.6461 227.986 76.7295C229.767 74.8153 231.922 73.2883 234.319 72.2434C236.778 71.1529 239.489 70.6098 242.455 70.6098C244.746 70.6098 247.025 71.1681 249.289 72.2869C251.553 73.4057 253.297 74.9416 254.529 76.8989ZM253.69 95.9358C254.253 94.4056 254.538 92.787 254.531 91.1565C254.531 89.4772 254.249 87.8848 253.69 86.3772C253.166 84.9255 252.37 83.5872 251.344 82.4342C250.32 81.3034 249.079 80.3902 247.694 79.7491C246.269 79.08 244.69 78.7433 242.959 78.7433C241.223 78.7433 239.656 79.08 238.26 79.7491C236.892 80.398 235.667 81.3105 234.653 82.4342C233.631 83.5812 232.848 84.9211 232.351 86.375C231.813 87.9108 231.543 89.5272 231.551 91.1543C231.551 92.8314 231.816 94.4259 232.348 95.9336C232.879 97.4456 233.648 98.7577 234.656 99.8765C235.669 101.001 236.894 101.913 238.262 102.562C239.656 103.233 241.223 103.567 242.956 103.567C244.69 103.567 246.269 103.233 247.694 102.562C249.079 101.921 250.32 101.008 251.344 99.8765C252.37 98.7244 253.166 97.3868 253.69 95.9358ZM270.883 110.695V71.6156H295.707V80.6116H280.022V110.699H270.883V110.695ZM328.832 76.8989V71.6156H337.973V110.697H328.832V105.412C327.602 107.369 325.856 108.907 323.59 110.024C321.326 111.143 319.049 111.701 316.755 111.701C313.792 111.701 311.081 111.158 308.622 110.067C306.225 109.022 304.069 107.494 302.289 105.579C300.525 103.674 299.132 101.457 298.181 99.0402C297.192 96.5296 296.694 93.8526 296.713 91.1543C296.713 88.417 297.202 85.8015 298.181 83.3119C299.124 80.8793 300.517 78.6462 302.287 76.7295C304.068 74.8151 306.225 73.288 308.622 72.2434C311.081 71.1529 313.792 70.6098 316.755 70.6098C319.047 70.6098 321.326 71.1681 323.59 72.2869C325.856 73.4057 327.602 74.9416 328.832 76.8989ZM327.993 95.9358C328.556 94.4054 328.84 92.7868 328.832 91.1565C328.832 89.4772 328.549 87.8848 327.993 86.3772C327.469 84.9255 326.673 83.5872 325.647 82.4342C324.623 81.3034 323.382 80.3902 321.997 79.7491C320.572 79.08 318.991 78.7433 317.259 78.7433C315.526 78.7433 313.96 79.08 312.563 79.7491C311.196 80.398 309.97 81.3105 308.956 82.4342C307.933 83.581 307.149 84.9209 306.652 86.375C306.115 87.9109 305.845 89.5274 305.854 91.1543C305.854 92.8314 306.117 94.4259 306.652 95.9336C307.182 97.4456 307.951 98.7577 308.956 99.8765C309.97 101.001 311.195 101.913 312.563 102.562C313.96 103.233 315.526 103.567 317.259 103.567C318.991 103.567 320.572 103.233 321.997 102.562C323.382 101.921 324.624 101.008 325.647 99.8765C326.673 98.7244 327.469 97.3868 327.993 95.9358ZM374.62 71.6156H383.879L368.878 110.697H357.386L342.383 71.6156H351.642L363.132 101.543L374.62 71.6156ZM403.817 70.6098C416.263 70.6098 424.75 81.6413 423.156 94.5519H392.831C392.831 97.9235 396.235 104.441 404.319 104.441C411.271 104.441 415.93 98.3254 415.933 98.3211L422.109 103.1C416.587 108.994 412.066 111.703 404.986 111.703C392.336 111.703 383.761 103.7 383.761 91.1565C383.761 79.8099 392.625 70.6098 403.817 70.6098ZM392.855 87.7588H414.762C414.694 87.0072 413.506 77.87 403.743 77.87C393.978 77.87 392.925 87.0072 392.855 87.7588ZM429.108 110.695V51.9922H438.25V110.695H429.108Z" fill="#FF2D20"/>
</svg>
