<svg width="115" height="111" viewBox="0 0 115 111" fill="none" xmlns="http://www.w3.org/2000/svg">
<path d="M62.2151 2.01075C64.3422 0.0684989 67.7203 0.592514 69.159 3.0879L74.2681 11.9492C75.2535 13.6584 77.2361 14.5281 79.161 14.0956L89.3436 11.8075C92.1828 11.1696 94.8735 13.3493 94.8387 16.2591L94.7212 26.0729C94.6971 28.0906 96.017 29.8786 97.9524 30.4497L107.763 33.345C110.611 34.1853 111.882 37.5013 110.326 40.0299L105.293 48.211C104.211 49.9687 104.462 52.2364 105.901 53.7157L112.743 60.7491C114.833 62.8981 114.282 66.4512 111.639 67.8658L102.987 72.4959C101.168 73.4697 100.242 75.5549 100.74 77.5577L103.059 86.8793C103.775 89.7604 101.559 92.5353 98.5911 92.4735L88.3643 92.2606C86.3468 92.2186 84.5473 93.5226 83.959 95.4529L81.0978 104.841C80.2495 107.625 77.0249 108.887 74.5124 107.419L65.5015 102.153C63.798 101.158 61.6452 101.386 60.1883 102.717L52.6348 109.614C50.5077 111.556 47.1296 111.032 45.6908 108.536L40.5818 99.6751C39.5963 97.966 37.6138 97.0963 35.6889 97.5288L25.5063 99.8169C22.667 100.455 19.9764 98.2751 20.0112 95.3653L20.1286 85.5515C20.1528 83.5338 18.8329 81.7458 16.8975 81.1747L7.08681 78.2794C4.23934 77.4391 2.96796 74.1231 4.52373 71.5945L9.55731 63.4134C10.6388 61.6557 10.3883 59.388 8.94922 57.9086L2.10724 50.8753C0.0166912 48.7263 0.567849 45.1732 3.2112 43.7585L11.8624 39.1285C13.682 38.1547 14.6077 36.0694 14.1096 34.0667L11.791 24.7451C11.0744 21.864 13.2906 19.0891 16.2588 19.1509L26.4856 19.3638C28.503 19.4058 30.3026 18.1018 30.8909 16.1715L33.752 6.78333C34.6004 3.9997 37.8249 2.73758 40.3375 4.20571L49.3484 9.47103C51.0518 10.4664 53.2046 10.2382 54.6616 8.90789L62.2151 2.01075Z" fill="#F46844"/>
</svg>
